<svg id="Layer_1" data-name="Layer 1" xmlns="http://www.w3.org/2000/svg" viewBox="0 0 167.49 167.48"><defs><style>.cls-1{fill:#fff;}</style></defs><title>spotify-logo</title><path class="cls-1" d="M84,.28A83.74,83.74,0,1,0,167.74,84,83.75,83.75,0,0,0,84,.28Zm38.4,120.78a5.22,5.22,0,0,1-7.18,1.73c-19.66-12-44.41-14.73-73.56-8.07a5.22,5.22,0,0,1-2.33-10.18c31.9-7.29,59.27-4.15,81.34,9.34A5.22,5.22,0,0,1,122.4,121.06Zm10.25-22.81a6.52,6.52,0,0,1-9,2.16c-22.51-13.84-56.82-17.85-83.45-9.77a6.53,6.53,0,1,1-3.79-12.49c30.41-9.23,68.22-4.76,94.07,11.13a6.52,6.52,0,0,1,2.15,9Zm.88-23.74c-27-16-71.52-17.51-97.29-9.69a7.83,7.83,0,1,1-4.55-15c29.58-9,78.76-7.24,109.83,11.21a7.83,7.83,0,0,1-8,13.47Z" transform="translate(-0.25 -0.28)"/></svg>